<mxfile host="app.diagrams.net" modified="2020-09-24T18:25:09.200Z" agent="5.0 (Windows NT 10.0; Win64; x64) AppleWebKit/537.36 (KHTML, like Gecko) Chrome/85.0.4183.121 Safari/537.36" etag="ET5SXTl6hgkPBU_5mqkW" version="13.7.5" type="github">
  <diagram id="C5RBs43oDa-KdzZeNtuy" name="Page-1">
    <mxGraphModel dx="868" dy="450" grid="1" gridSize="10" guides="1" tooltips="1" connect="1" arrows="1" fold="1" page="1" pageScale="1" pageWidth="827" pageHeight="1169" math="0" shadow="0">
      <root>
        <mxCell id="WIyWlLk6GJQsqaUBKTNV-0" />
        <mxCell id="WIyWlLk6GJQsqaUBKTNV-1" parent="WIyWlLk6GJQsqaUBKTNV-0" />
        <mxCell id="d4PYTUlInw-bEi0Qalva-24" style="edgeStyle=orthogonalEdgeStyle;rounded=0;orthogonalLoop=1;jettySize=auto;html=1;entryX=0.5;entryY=0.5;entryDx=0;entryDy=0;entryPerimeter=0;" edge="1" parent="WIyWlLk6GJQsqaUBKTNV-1" target="d4PYTUlInw-bEi0Qalva-15">
          <mxGeometry relative="1" as="geometry">
            <mxPoint x="590" y="180.6" as="targetPoint" />
            <mxPoint x="170" y="180.6" as="sourcePoint" />
          </mxGeometry>
        </mxCell>
        <mxCell id="d4PYTUlInw-bEi0Qalva-15" value="CIP&lt;br&gt;" style="shape=umlActor;verticalLabelPosition=bottom;verticalAlign=top;html=1;" vertex="1" parent="WIyWlLk6GJQsqaUBKTNV-1">
          <mxGeometry x="730" y="150.6" width="30" height="60" as="geometry" />
        </mxCell>
        <mxCell id="d4PYTUlInw-bEi0Qalva-29" value="ACPO201" style="verticalLabelPosition=bottom;html=1;verticalAlign=top;strokeWidth=1;align=center;outlineConnect=0;dashed=0;outlineConnect=0;shape=mxgraph.aws3d.file;aspect=fixed;strokeColor=#292929;" vertex="1" parent="WIyWlLk6GJQsqaUBKTNV-1">
          <mxGeometry x="240" y="80" width="30.8" height="70.6" as="geometry" />
        </mxCell>
        <mxCell id="d4PYTUlInw-bEi0Qalva-31" value="ACPO202" style="verticalLabelPosition=bottom;html=1;verticalAlign=top;strokeWidth=1;align=center;outlineConnect=0;dashed=0;outlineConnect=0;shape=mxgraph.aws3d.file;aspect=fixed;strokeColor=#292929;" vertex="1" parent="WIyWlLk6GJQsqaUBKTNV-1">
          <mxGeometry x="640" y="230.6" width="30.8" height="70.6" as="geometry" />
        </mxCell>
        <mxCell id="d4PYTUlInw-bEi0Qalva-32" value="GBD &lt;br&gt;(GERENCIADOR DE BANCO DE DADOS)" style="shape=umlActor;verticalLabelPosition=bottom;verticalAlign=top;html=1;outlineConnect=0;" vertex="1" parent="WIyWlLk6GJQsqaUBKTNV-1">
          <mxGeometry x="120" y="150.6" width="30" height="60" as="geometry" />
        </mxCell>
        <mxCell id="d4PYTUlInw-bEi0Qalva-50" style="edgeStyle=orthogonalEdgeStyle;rounded=0;orthogonalLoop=1;jettySize=auto;html=1;" edge="1" parent="WIyWlLk6GJQsqaUBKTNV-1" source="d4PYTUlInw-bEi0Qalva-45" target="d4PYTUlInw-bEi0Qalva-48">
          <mxGeometry relative="1" as="geometry" />
        </mxCell>
        <mxCell id="d4PYTUlInw-bEi0Qalva-45" value="CIP&lt;br&gt;" style="shape=umlActor;verticalLabelPosition=bottom;verticalAlign=top;html=1;" vertex="1" parent="WIyWlLk6GJQsqaUBKTNV-1">
          <mxGeometry x="730" y="310.6" width="30" height="60" as="geometry" />
        </mxCell>
        <mxCell id="d4PYTUlInw-bEi0Qalva-48" value="GBD &lt;br&gt;(GERENCIADOR DE BANCO DE DADOS)" style="shape=umlActor;verticalLabelPosition=bottom;verticalAlign=top;html=1;outlineConnect=0;" vertex="1" parent="WIyWlLk6GJQsqaUBKTNV-1">
          <mxGeometry x="120" y="310.6" width="30" height="60" as="geometry" />
        </mxCell>
      </root>
    </mxGraphModel>
  </diagram>
</mxfile>
